<?xml version="1.0" encoding="UTF-8" standalone="no"?>
<!-- Created with Inkscape (http://www.inkscape.org/) -->

<svg
   width="512"
   height="110"
   viewBox="0 0 512 110"
   version="1.1"
   id="svg1"
   inkscape:version="1.3 (0e150ed6c4, 2023-07-21)"
   sodipodi:docname="icon_scaled.svg"
   inkscape:export-filename="icon_scaled.png"
   inkscape:export-xdpi="256"
   inkscape:export-ydpi="256"
   xmlns:inkscape="http://www.inkscape.org/namespaces/inkscape"
   xmlns:sodipodi="http://sodipodi.sourceforge.net/DTD/sodipodi-0.dtd"
   xmlns:xlink="http://www.w3.org/1999/xlink"
   xmlns="http://www.w3.org/2000/svg"
   xmlns:svg="http://www.w3.org/2000/svg">
  <sodipodi:namedview
     id="namedview1"
     pagecolor="#505050"
     bordercolor="#ffffff"
     borderopacity="1"
     inkscape:showpageshadow="0"
     inkscape:pageopacity="0"
     inkscape:pagecheckerboard="1"
     inkscape:deskcolor="#505050"
     inkscape:document-units="px"
     inkscape:zoom="0.39697265"
     inkscape:cx="928.27554"
     inkscape:cy="119.6556"
     inkscape:window-width="1920"
     inkscape:window-height="1009"
     inkscape:window-x="-8"
     inkscape:window-y="-8"
     inkscape:window-maximized="1"
     inkscape:current-layer="layer1"
     showguides="true">
    <sodipodi:guide
       position="2103.4195,-532.35918"
       orientation="0,1"
       id="guide6"
       inkscape:locked="false"
       inkscape:label=""
       inkscape:color="rgb(0,134,229)" />
    <sodipodi:guide
       position="256,-547"
       orientation="-1,0"
       id="guide7"
       inkscape:locked="false"
       inkscape:label=""
       inkscape:color="rgb(0,134,229)" />
  </sodipodi:namedview>
  <defs
     id="defs1">
    <linearGradient
       id="linearGradient12"
       inkscape:collect="always">
      <stop
         style="stop-color:#51fff9;stop-opacity:1;"
         offset="0"
         id="stop13" />
      <stop
         style="stop-color:#008aa3;stop-opacity:1;"
         offset="1"
         id="stop14" />
    </linearGradient>
    <linearGradient
       id="linearGradient10"
       inkscape:collect="always">
      <stop
         style="stop-color:#cd2741;stop-opacity:1;"
         offset="0"
         id="stop11" />
      <stop
         style="stop-color:#0ba9c2;stop-opacity:1;"
         offset="1"
         id="stop12" />
    </linearGradient>
    <rect
       x="25.820417"
       y="188.30013"
       width="426.98154"
       height="153.0332"
       id="rect1" />
    <rect
       x="25.820417"
       y="188.30013"
       width="426.98154"
       height="153.0332"
       id="rect7" />
    <radialGradient
       inkscape:collect="always"
       xlink:href="#linearGradient10"
       id="radialGradient12"
       cx="217.58112"
       cy="255.62041"
       fx="217.58112"
       fy="255.62041"
       r="188.48283"
       gradientTransform="matrix(1,0,0,0.21481479,0,200.70936)"
       gradientUnits="userSpaceOnUse" />
    <linearGradient
       inkscape:collect="always"
       xlink:href="#linearGradient12"
       id="linearGradient14"
       x1="29.098274"
       y1="215.1315"
       x2="406.06396"
       y2="296.10931"
       gradientUnits="userSpaceOnUse"
       gradientTransform="matrix(1.3582138,0,0,1.358397,-39.52168,-292.234)" />
  </defs>
  <g
     inkscape:label="Layer 1"
     inkscape:groupmode="layer"
     id="layer1">
    <path
       d="M 34.133333,107.85607 H 50.952647 V 15.502241 H 85.25088 V 0 H 0 v 15.502241 h 34.133333 z m 66.617567,0 h 16.81932 V 69.265375 h 25.72367 l 25.72366,38.590695 h 20.11723 L 160.6079,67.781105 C 177.5921,63.493255 185.17729,50.794592 185.17729,34.632682 185.17729,14.67766 173.63463,0 147.08647,0 H 100.7509 Z M 117.57022,53.763112 V 15.502241 h 29.68115 c 15.50016,0 20.9417,8.080961 20.9417,19.130442 0,10.884557 -5.27664,19.13043 -20.9417,19.13043 z m 86.89995,54.092958 h 16.81932 V 0 H 204.47017 Z M 281.31135,110 c 18.96295,0 33.80355,-9.73014 40.06955,-24.90255 h -17.314 c -4.78198,7.091457 -12.20225,10.389812 -22.75555,10.389812 -14.181,0 -25.0641,-8.08096 -27.37265,-22.593707 h 70.905 v -5.77211 c 0,-24.737638 -17.8087,-42.878564 -43.53235,-42.878564 -25.72368,0 -43.86217,18.140926 -43.86217,42.878564 C 237.44918,91.859072 255.58767,110 281.31135,110 Z M 254.4334,58.875562 c 3.13302,-12.863574 13.35652,-20.119934 26.87795,-20.119934 13.19162,0 23.90983,7.091437 27.04282,20.119934 z m 83.27205,48.980508 H 353.3705 V 65.472262 c 0,-17.646169 9.7288,-26.716634 24.5694,-26.716634 14.84057,0 24.5694,9.070465 24.5694,26.716634 v 42.383808 h 15.66505 V 65.472262 c 0,-27.376312 -16.15975,-41.229381 -40.23445,-41.229381 -24.0747,0 -40.23445,14.017991 -40.23445,41.229381 z m 121.36315,0 h 18.96297 L 512,26.38681 H 495.34555 L 468.79742,93.83808 442.2493,26.38681 h -17.14913 z"
       id="text7"
       style="font-size:121.406px;font-family:'All Round Gothic';-inkscape-font-specification:'All Round Gothic, Normal';white-space:pre;fill:url(#linearGradient14);stroke-width:2.7166"
       aria-label="TRIenv" />
  </g>
</svg>
